<svg width="28" height="27" viewBox="0 0 28 27" fill="none" xmlns="http://www.w3.org/2000/svg">
<g clip-path="url(#clip0_39_69)">
<path d="M25.3456 0H2.34007C1.81165 0 1.30487 0.209914 0.93122 0.583564C0.557571 0.957213 0.347656 1.46399 0.347656 1.99241V24.9979C0.347656 25.5263 0.557571 26.0331 0.93122 26.4067C1.30487 26.7804 1.81165 26.9903 2.34007 26.9903H25.3456C25.874 26.9903 26.3807 26.7804 26.7544 26.4067C27.128 26.0331 27.338 25.5263 27.338 24.9979V1.99241C27.338 1.46399 27.128 0.957213 26.7544 0.583564C26.3807 0.209914 25.874 0 25.3456 0ZM8.39227 22.9924H4.33435V10.1026H8.39227V22.9924ZM6.3605 8.31639C5.9002 8.3138 5.45098 8.17491 5.06954 7.91725C4.68809 7.6596 4.39152 7.29473 4.21725 6.86868C4.04298 6.44264 3.99882 5.97452 4.09035 5.5234C4.18187 5.07228 4.40498 4.65839 4.73151 4.33395C5.05804 4.00951 5.47336 3.78906 5.92505 3.70044C6.37675 3.61181 6.84457 3.65898 7.26949 3.83598C7.69441 4.01298 8.05737 4.31189 8.31257 4.69498C8.56777 5.07807 8.70377 5.52817 8.7034 5.98847C8.70775 6.29665 8.65 6.60255 8.5336 6.88793C8.41721 7.17331 8.24455 7.43234 8.02592 7.64958C7.80728 7.86681 7.54715 8.03781 7.26102 8.15237C6.9749 8.26693 6.66864 8.32271 6.3605 8.31639ZM23.3494 23.0036H19.2934V15.9618C19.2934 13.885 18.4105 13.244 17.271 13.244C16.0676 13.244 14.8868 14.1512 14.8868 16.0142V23.0036H10.8289V10.112H14.7312V11.8982H14.7837C15.1755 11.1054 16.5475 9.75025 18.6411 9.75025C20.9053 9.75025 23.3513 11.0941 23.3513 15.0302L23.3494 23.0036Z" fill="white"/>
</g>
<defs>
<clipPath id="clip0_39_69">
<rect x="0.347656" width="26.9903" height="26.9903" fill="white"/>
</clipPath>
</defs>
</svg>
