<svg width="21" height="22" viewBox="0 0 21 22" fill="none" xmlns="http://www.w3.org/2000/svg">
<path d="M10.5 0.5C4.70156 0.5 0 5.20156 0 11C0 16.7984 4.70156 21.5 10.5 21.5C16.2984 21.5 21 16.7984 21 11C21 5.20156 16.2984 0.5 10.5 0.5ZM13.8773 11.1617L8.75859 14.8859C8.73053 14.9061 8.69745 14.9181 8.66299 14.9207C8.62853 14.9233 8.59403 14.9164 8.56327 14.9006C8.53251 14.8849 8.50668 14.861 8.48863 14.8315C8.47057 14.802 8.46099 14.7681 8.46094 14.7336V7.28984C8.46082 7.25522 8.4703 7.22124 8.48832 7.19167C8.50633 7.1621 8.53219 7.1381 8.56301 7.12232C8.59383 7.10654 8.62842 7.09961 8.66295 7.10229C8.69747 7.10497 8.73057 7.11716 8.75859 7.1375L13.8773 10.8594C13.9015 10.8765 13.9213 10.8991 13.9349 10.9254C13.9485 10.9517 13.9556 10.9809 13.9556 11.0105C13.9556 11.0402 13.9485 11.0694 13.9349 11.0957C13.9213 11.122 13.9015 11.1446 13.8773 11.1617Z" fill="#BDB0EC"/>
</svg>
