<svg width="28" height="27" viewBox="0 0 28 27" fill="none" xmlns="http://www.w3.org/2000/svg">
<g clip-path="url(#clip0_39_67)">
<path d="M23.7969 8.07563C23.8073 8.31315 23.8073 8.53987 23.8073 8.77738C23.8177 15.9784 18.5271 24.2915 8.85188 24.2915C5.99828 24.2915 3.19675 23.4386 0.79097 21.8407C1.20755 21.8947 1.62414 21.9163 2.04072 21.9163C4.40484 21.9163 6.70647 21.0958 8.57069 19.5735C6.32113 19.5304 4.34235 18.0081 3.65499 15.7841C4.4465 15.946 5.25884 15.9136 6.02952 15.6869C3.58209 15.1903 1.82202 12.9555 1.8116 10.3536C1.8116 10.332 1.8116 10.3104 1.8116 10.2888C2.54063 10.7099 3.36338 10.9474 4.19655 10.969C1.89492 9.37117 1.17631 6.18631 2.57187 3.6924C5.24843 7.10398 9.18515 9.16605 13.4135 9.39277C12.9865 7.50344 13.5697 5.51695 14.934 4.17822C17.0482 2.11616 20.3809 2.22412 22.3805 4.41574C23.5573 4.17822 24.6925 3.72478 25.7236 3.08781C25.3278 4.35096 24.5051 5.41978 23.4115 6.09994C24.453 5.97038 25.4736 5.67889 26.4318 5.24704C25.7236 6.34825 24.8279 7.29831 23.7969 8.07563Z" fill="white"/>
</g>
<defs>
<clipPath id="clip0_39_67">
<rect x="0.116211" width="26.9903" height="26.9903" fill="white"/>
</clipPath>
</defs>
</svg>
