<svg width="175" height="47" viewBox="0 0 175 47" fill="none" xmlns="http://www.w3.org/2000/svg">
<path d="M58.944 0.751999H67.52L50.88 46.32H46.784L33.92 14.832L21.184 46.32H17.152L0.32 0.751999H9.024L19.712 31.6L31.936 0.559998H36.096L48.256 31.728L58.944 0.751999ZM73.6625 46.704C68.4998 46.704 64.3612 45.0613 61.2465 41.776C58.1745 38.4907 56.6385 34.0747 56.6385 28.528C56.6385 22.9813 58.1745 18.5867 61.2465 15.344C64.3185 12.0587 68.3505 10.416 73.3425 10.416C78.1212 10.416 81.8545 11.7813 84.5425 14.512V11.184H92.0945V46H84.6705V42.352C82.1958 45.2533 78.5265 46.704 73.6625 46.704ZM75.1345 39.984C77.0972 39.984 78.9318 39.5573 80.6385 38.704C82.3452 37.8507 83.6892 36.5707 84.6705 34.864V22.128C83.6465 20.5493 82.2385 19.3333 80.4465 18.48C78.6545 17.584 76.7985 17.136 74.8785 17.136C71.7638 17.136 69.2465 18.1387 67.3265 20.144C65.4492 22.1493 64.5105 24.9227 64.5105 28.464C64.5105 32.048 65.4705 34.864 67.3905 36.912C69.3105 38.96 71.8918 39.984 75.1345 39.984ZM115.722 11.184H124.042L107.594 46.32H103.178L86.73 11.184H95.37L101.962 26.672L105.418 35.44L109.002 26.8L115.722 11.184ZM151.202 28.656C151.202 29.68 151.181 30.4053 151.139 30.832H123.042C123.512 33.8187 124.728 36.144 126.69 37.808C128.653 39.472 131.192 40.304 134.306 40.304C138.872 40.304 142.434 38.704 144.994 35.504L149.923 39.6C146.424 44.336 141.048 46.704 133.794 46.704C128.077 46.704 123.554 45.0613 120.226 41.776C116.941 38.448 115.298 34.0107 115.298 28.464C115.298 23.0027 116.962 18.608 120.29 15.28C123.618 11.952 127.949 10.288 133.282 10.288C139.085 10.288 143.522 11.9733 146.594 15.344C149.666 18.672 151.202 23.1093 151.202 28.656ZM133.282 16.624C130.68 16.624 128.461 17.3707 126.626 18.864C124.792 20.3147 123.618 22.4053 123.106 25.136H143.587C143.33 22.6187 142.328 20.5707 140.578 18.992C138.872 17.4133 136.44 16.624 133.282 16.624ZM160.096 46.832C154.677 46.832 149.792 45.7653 145.44 43.632L147.936 37.552C151.562 39.6853 155.552 40.752 159.904 40.752C164.426 40.752 166.688 39.28 166.688 36.336C166.688 35.0987 166.09 34.16 164.896 33.52C163.701 32.88 161.568 32.2187 158.496 31.536C154.186 30.64 151.008 29.4027 148.96 27.824C146.954 26.2027 145.952 23.8773 145.952 20.848C145.952 17.4773 147.168 14.9173 149.6 13.168C152.074 11.376 155.402 10.48 159.584 10.48C163.893 10.48 168.352 11.3973 172.96 13.232L170.4 19.312C166.986 17.5627 163.338 16.688 159.456 16.688C155.53 16.688 153.568 17.904 153.568 20.336C153.568 21.616 154.122 22.576 155.232 23.216C156.341 23.856 158.474 24.5387 161.632 25.264C166.069 26.288 169.312 27.568 171.36 29.104C173.45 30.64 174.496 32.8373 174.496 35.696C174.496 39.536 173.301 42.352 170.912 44.144C168.522 45.936 164.917 46.832 160.096 46.832Z" fill="#8447E9"/>
</svg>
